<svg xmlns="http://www.w3.org/2000/svg" width="1600" height="900" viewBox="0 0 1600 900">
<defs>
  <linearGradient id="bg" x1="0" y1="0" x2="1" y2="1">
    <stop offset="0%" stop-color="#0f172a"/>
    <stop offset="100%" stop-color="#1e293b"/>
  </linearGradient>
</defs>
<rect width="1600" height="900" fill="url(#bg)"/>
<rect x="120" y="120" width="100" height="72" rx="16" fill="#22c55e"/><text x="170" y="165" text-anchor="middle" font-size="26" font-family="Arial, Helvetica, sans-serif" fill="white">APP</text>
<rect x="245" y="120" width="100" height="72" rx="16" fill="#38bdf8"/><text x="295" y="165" text-anchor="middle" font-size="26" font-family="Arial, Helvetica, sans-serif" fill="white">DB</text>
<rect x="370" y="120" width="100" height="72" rx="16" fill="#a78bfa"/><text x="420" y="165" text-anchor="middle" font-size="26" font-family="Arial, Helvetica, sans-serif" fill="white">KEY</text>
<rect x="495" y="120" width="100" height="72" rx="16" fill="#f59e0b"/><text x="545" y="165" text-anchor="middle" font-size="26" font-family="Arial, Helvetica, sans-serif" fill="white">ENV</text>
<text x="120" y="330" font-size="76" font-weight="700" font-family="Arial, Helvetica, sans-serif" fill="white">Environment Variables</text>
<text x="120" y="418" font-size="76" font-weight="700" font-family="Arial, Helvetica, sans-serif" fill="white">for Beginners</text>
<text x="120" y="500" font-size="34" font-family="Arial, Helvetica, sans-serif" fill="#cbd5e1">How apps hide configuration without hardcoding it</text>
<rect x="1090" y="170" width="380" height="470" rx="28" fill="none" stroke="#38bdf8" stroke-width="4"/>
<text x="1280" y="245" text-anchor="middle" font-size="38" font-family="Arial, Helvetica, sans-serif" fill="#38bdf8">process.env</text>
<rect x="1140" y="320" width="280" height="58" rx="12" fill="#111827"/><text x="1160" y="357" font-size="28" font-family="Arial, Helvetica, sans-serif" fill="white">API_KEY=***</text>
<rect x="1140" y="404" width="280" height="58" rx="12" fill="#111827"/><text x="1160" y="441" font-size="28" font-family="Arial, Helvetica, sans-serif" fill="white">DB_HOST=localhost</text>
<rect x="1140" y="488" width="280" height="58" rx="12" fill="#111827"/><text x="1160" y="525" font-size="28" font-family="Arial, Helvetica, sans-serif" fill="white">APP_ENV=production</text>
</svg>